<?xml version="1.0" encoding="utf-8"?>
<!-- Generator: Adobe Illustrator 22.0.1, SVG Export Plug-In . SVG Version: 6.00 Build 0)  -->
<svg version="1.1" id="Layer_1" xmlns="http://www.w3.org/2000/svg" xmlns:xlink="http://www.w3.org/1999/xlink" x="0px" y="0px"
	 viewBox="0 0 20 20" style="enable-background:new 0 0 20 20;" xml:space="preserve">
<style type="text/css">
	.st0{fill:#FFFFFF;}
</style>
<path class="st0" d="M10,19.5c-5.2,0-9.5-4.3-9.5-9.5c0-5.2,4.3-9.5,9.5-9.5s9.5,4.3,9.5,9.5C19.5,15.2,15.2,19.5,10,19.5z M10,1
	c-5,0-9,4-9,9s4,9,9,9c5,0,9-4,9-9S15,1,10,1z"/>
<path class="st0" d="M7.4,15.4c0,0-0.1,0-0.1,0c-0.1,0-0.1-0.1-0.1-0.2V4.8c0-0.1,0.1-0.2,0.1-0.2c0.1,0,0.2,0,0.3,0l7.3,5.2
	c0.1,0,0.1,0.1,0.1,0.2s0,0.2-0.1,0.2l-7.3,5.2C7.5,15.4,7.4,15.4,7.4,15.4z M7.6,5.3v9.4l6.6-4.7L7.6,5.3z"/>
<path class="st0" d="M17.7,7.8c-0.1,0-0.2-0.1-0.2-0.2c-0.6-2.2-2.1-3.9-4.2-4.9c-0.1-0.1-0.2-0.2-0.1-0.3c0.1-0.1,0.2-0.2,0.3-0.1
	c2.2,1,3.8,2.9,4.5,5.2C17.9,7.6,17.9,7.8,17.7,7.8C17.7,7.8,17.7,7.8,17.7,7.8z"/>
<path class="st0" d="M4.6,16.2c-0.1,0-0.1,0-0.2-0.1c-0.5-0.5-1-1-1.4-1.7c-0.1-0.1,0-0.3,0.1-0.3c0.1-0.1,0.3,0,0.3,0.1
	c0.4,0.6,0.8,1.1,1.3,1.6c0.1,0.1,0.1,0.3,0,0.4C4.7,16.2,4.6,16.2,4.6,16.2z"/>
</svg>
